<?xml version="1.0" encoding="utf-8"?>
<!-- Uploaded to: SVG Repo, www.svgrepo.com, Generator: SVG Repo Mixer Tools -->
<svg width="800px" height="800px" viewBox="0 -3.5 1031 1031" class="icon"  version="1.1" xmlns="http://www.w3.org/2000/svg"><path d="M541 550.3875m-395.158333 0a395.158333 395.158333 0 1 0 790.316666 0 395.158333 395.158333 0 1 0-790.316666 0Z" fill="#00A2E9" /><path d="M514.358333 916.095833c-226.4 0-410.591667-184.191667-410.591666-410.591666s184.191667-410.591667 410.591666-410.591667c226.404167 0 410.591667 184.191667 410.591667 410.591667s-184.1875 410.591667-410.591667 410.591666z m0-789.4375c-208.895833 0-378.841667 169.95-378.841666 378.841667 0 208.895833 169.945833 378.845833 378.841666 378.845833s378.845833-169.95 378.845834-378.845833c0-208.891667-169.95-378.841667-378.845834-378.841667z" fill="#332C2B" /><path d="M155 876.641667c-199.604167-247.658333-206.054167-497.675-19.166667-743.1125l25.2625 19.233333c-179.383333 235.579167-173.2875 465.841667 18.625 703.954167l-24.720833 19.925zM904.345833 865.775l-26.9125-16.854167c111.033333-177.291667 210.429167-416.620833-8.370833-695.9875l25-19.575c230.975 294.9125 126.825 546.329167 10.283333 732.416667z" fill="#332C2B" /><path d="M365.9 725.070833V237.870833h183.891667c32.241667 0 57.045833 1.5375 74.175 4.604167 23.858333 4.016667 43.933333 11.575 60.233333 22.675 16.183333 11.220833 29.175 26.929167 39.095833 47.008333 9.808333 20.079167 14.7625 42.166667 14.7625 66.379167 0 41.220833-13.225 76.3-39.679166 104.879167-26.220833 28.7-73.9375 42.875-142.9125 42.875h-124.958334v198.779166H365.9z m64.604167-255.825h125.904166c41.691667 0 71.1-7.795833 88.695834-23.266666 17.479167-15.591667 26.220833-37.325 26.220833-65.55 0-20.316667-5.079167-37.795833-15.470833-52.325-10.275-14.525-23.8625-24.095833-40.629167-28.820834-10.866667-2.833333-30.945833-4.254167-60.120833-4.254166h-124.6v174.216666z" fill="#332C2B" /><path d="M446.379167 740.941667H350.025V221.995833h199.766667c33.104167 0 59.004167 1.633333 76.975 4.858334 25.854167 4.35 48.241667 12.833333 66.370833 25.179166 18.3625 12.733333 33.2625 30.570833 44.391667 53.095834 10.895833 22.308333 16.404167 46.983333 16.404166 73.408333 0 45.275-14.770833 84.191667-43.904166 115.6625-29.4625 32.25-80.041667 47.9625-154.5625 47.9625h-109.083334v198.779167z m-64.604167-31.745834h32.854167V510.416667h140.833333c64.191667 0 108.333333-12.683333 131.191667-37.704167 23.925-25.85 35.525-56.629167 35.525-94.170833 0-21.554167-4.429167-41.541667-13.154167-59.4125-8.683333-17.579167-20.091667-31.370833-33.875-40.929167-14.208333-9.675-32.354167-16.454167-53.825-20.066667-16.291667-2.920833-40.308333-4.3875-71.5375-4.3875H381.775v455.45z m174.633333-224.075H414.629167V279.158333h140.475c30.85 0 51.825 1.558333 64.125 4.766667 20.666667 5.816667 37.25 17.570833 49.583333 35.0125 12.183333 17.029167 18.383333 37.741667 18.383333 61.491667 0 32.7-10.608333 58.7375-31.525 77.395833-20.908333 18.391667-53.35 27.295833-99.2625 27.295833z m-110.029166-31.75h110.029166c37.325 0 63.6375-6.5 78.2125-19.3125 13.983333-12.479167 20.829167-30.041667 20.829167-53.629166 0-17.229167-4.091667-31.320833-12.508333-43.0875-8.191667-11.579167-18.65-19.008333-32.025-22.775-6.241667-1.625-21.283333-3.654167-55.816667-3.654167H446.375v142.458333z" fill="#332C2B" /></svg>